<svg xmlns="http://www.w3.org/2000/svg" width="1254" height="1254" viewBox="0 0 1254 1254"><path fill="#F6F2E9" d="M0 0h1254v1254H0z"/><path fill="#0B0C10" d="M571.878 298.913c22.137 9.565 27.782 22.275 28.208 45.713 14.738 13.711 21.444 25.437 26.99 44.82 6.207-19.549 12.071-31.185 27.468-44.939-.246-22.581 6.105-36.576 27.658-45.555 5.625 21.649 6.201 43.327-6.241 62.708-5.064 7.021-10.074 11.83-13.14 20.218-15.993 43.772 9.073 86.17 35.879 120.064-15.048 18.328-25.615 50.013-28.468 73.368-9.572 78.349 25.304 147.409 70.695 207.653l-8.617 7.719c-44.816 36.306-100.102 49.001-155.464 30.675-25.953-8.59-43.37-20.845-63.698-38.267 7.488-8.841 14.228-18.959 20.671-28.593 49.01-73.283 77.261-174.256 22.214-252.62 16.326-20.036 32.069-45.192 37.913-70.61 3.728-14.417 3.78-43.458-5.374-56.171-11.507-15.983-19.742-25.282-20.334-46.759-.298-10.819 1.114-18.457 3.64-29.424"/><path fill="#0B0C10" d="M712.049 511.121c18.47.457 39.639 7.641 56.3 15.798 45.484 22.27 79.095 59.326 95.664 107.377 22.871 66.326 2.746 146.941-27.249 208.049-1.543 3.457-3.586 7.222-5.341 10.62-63.996-56.413-130.836-139.087-144.407-226.072-6.074-38.932 1.328-83.523 25.033-115.772"/><path fill="#0B0C10" d="m538.932 511.514 2.36-.238c3.946 1.081 9.057 11.709 11.115 15.403 13.136 23.588 18.519 54.653 16.892 81.569-4.996 82.658-58.236 155.346-113.251 213.441-10.353 10.844-22.022 21.262-32.999 31.312l-3.586-7.065c-40.216-85.839-63.761-183.411 1.185-264.609 28.881-36.109 71.884-64.308 118.284-69.813"/><path fill="#0B0C10" d="M607.699 844.273c13.389 1.701 25.618 1.427 39.029.039 3.082 15.044 7.163 30.714 10.706 45.734l19.999 84.15c1.494 6.165 3.059 12.423 4.511 18.51 6.432 26.954 15.983 52.894 1.588 79.304-9.181 16.85-20.231 26.02-38.091 32.82-29.397 7.12-56.351-2.22-72.463-28.63a67.34 67.34 0 0 1-9.924-35.62c.196-15.17 9.498-48.018 13.311-64.313z"/><path fill="#0B0C10" d="M556.725 830.11c10.178 5.266 26.486 9.706 37.633 12.128a10795 10795 0 0 1-29.257 119.628c-5.713 23.375-16.522 60.054-16.468 82.654-11.681 1.56-20.252.76-31.309-3.13a58 58 0 0 1-11.454-5.79 66.8 66.8 0 0 1-28.651-42.332c-7.821-38.574 13.783-64.025 33.566-94.005z"/><path fill="#0B0C10" d="M697.181 830.276c6.234 4.482 55.426 85.032 64.431 97.095 27.247 36.501 22.829 91.979-23.952 113.789-11.823 3.99-19.378 4.81-31.736 3.38.11-19.13-3.443-28.87-8.019-47.342l-9.462-38.194-28.587-116.672c14.57-2.982 23.875-6.436 37.325-12.056"/><path fill="#0B0C10" d="M572.53 286.836q.435-1.176.914-2.335c6.092-15.099 16.851-26.551 31.97-32.851a56.84 56.84 0 0 1 43.527-.056c16.32 6.725 26.388 19.123 32.934 35.09-22.22 8.595-34.025 20.889-36.855 45.187l-.106 6.921c-10.864 10.811-10.736 13.362-17.866 25.899-5.407-10.958-8.253-16.716-17.428-25.244l.108-6.99c-3.227-23.917-15.139-37.191-37.198-45.621"/><path fill="#D2A12C" d="M627.392 317.644c7.001 4.747 11.455 8.639 17.628 14.227l-.106 6.921c-10.864 10.811-10.736 13.362-17.866 25.899-5.407-10.958-8.253-16.716-17.428-25.244l.108-6.99c6.171-6.538 10.193-10.019 17.664-14.813"/><path fill="#D2A12C" d="M623.794 145.797c9.128-.769 17.202 2.24 21.819 10.604a21.8 21.8 0 0 1 2.616 12.032c-.433 5.927-3.84 17.142-5.592 23.388a2586 2586 0 0 1-12.451 42.469c-2.396.734-2.832.742-4.86-.022-3.384-4.347-10.898-33.607-12.948-40.548-5.466-18.501-13.941-40.65 11.416-47.923"/><path fill="#D2A12C" d="M673.099 178.959c21.331-.777 27.472 21.441 11.502 33.26-9.334 6.907-20.365 13.081-30.382 19.099-3.157 1.898-10.329 7.203-13.92 4.996-.022-9.048 14.291-37.25 18.641-46.672 2.552-5.525 7.951-9.25 14.159-10.683"/><path fill="#D2A12C" d="M576.42 178.931c5.62-.253 12.351.942 15.65 5.64 4.905 6.982 23.001 44.258 22.353 50.716-2.947 3.448-6.541.447-9.807-1.388-10.004-6.104-19.835-12.396-29.757-18.685-8.457-5.36-16.048-13.201-12.616-24.09 2.272-7.212 7.146-10.358 14.177-12.193"/></svg>